<svg xmlns="http://www.w3.org/2000/svg" xmlns:xlink="http://www.w3.org/1999/xlink" width="116" height="60" viewBox="0 0 116 60">
  <defs>
    <clipPath id="clip-sendCV-logo-white">
      <rect width="116" height="60"/>
    </clipPath>
  </defs>
  <g id="sendCV-logo-white" clip-path="url(#clip-sendCV-logo-white)">
    <g id="logo">
      <rect id="Rectangle_6" data-name="Rectangle 6" width="116" height="60" fill="none"/>
      <g id="Group_19" data-name="Group 19" transform="translate(13 12)">
        <g id="Group_25067" data-name="Group 25067" transform="translate(55.955 0)" opacity="0.4">
          <path id="Path_37" data-name="Path 37" d="M1548.911,1201.44a8.726,8.726,0,0,0-8.716-8.716v1.512a7.212,7.212,0,0,1,7.2,7.2v1.693a9.77,9.77,0,0,1,1.511.414Z" transform="translate(-1534.739 -1192.724)" fill="#fff"/>
          <path id="Path_38" data-name="Path 38" d="M1549.945,1212.131a4.554,4.554,0,0,0-1.349-1.084v7.339a4.518,4.518,0,0,0,1.343-1.1l.168-.2v-4.775Z" transform="translate(-1535.935 -1195.333)" fill="#fff"/>
          <path id="Path_39" data-name="Path 39" d="M1545.12,1210.53l-.043,0a4.711,4.711,0,0,0-1.469.223v10.978c0,.074,0,.145-.01.217,0,.019,0,.038-.007.057-.007.061-.015.122-.027.181l-.005.032c-.015.068-.033.135-.053.2l-.016.05c-.017.053-.037.106-.057.159-.006.014-.011.027-.017.042s-.024.049-.036.074-.033.074-.052.109c-.007.013-.015.026-.022.038-.026.049-.056.1-.087.142l-.028.044c-.039.055-.078.11-.121.161l-.019.022c-.039.045-.078.088-.119.13l-.039.038c-.047.047-.1.092-.147.135l0,0-.044.033c-.04.03-.079.061-.119.089l-.045.03q-.073.049-.149.091l-.028.016a2.376,2.376,0,0,1-3.5-1.919,8.765,8.765,0,0,1-.792-.664,8.652,8.652,0,0,1-.728-.785v1.273a3.887,3.887,0,0,0,5.636,3.474h0l.033-.018c.057-.029.112-.06.167-.092l.046-.026c.067-.04.133-.083.2-.127l.042-.029c.052-.037.1-.075.154-.114l.05-.039c.061-.05.121-.1.178-.153l.009-.009c.056-.051.109-.1.161-.156l.044-.048c.046-.047.088-.1.131-.145l.028-.033c.05-.06.1-.122.144-.185.012-.015.022-.032.034-.047.036-.052.071-.1.1-.155l.013-.02.021-.032c.041-.066.082-.134.118-.2l.016-.031c.032-.061.062-.122.091-.184l.027-.061c.028-.064.056-.13.08-.2l.01-.027c.027-.073.052-.147.074-.222l0-.005.018-.062c.017-.062.033-.124.047-.187,0-.019.01-.038.014-.057.016-.079.031-.159.043-.239,0-.016,0-.033.007-.05.009-.067.015-.134.021-.2,0-.023,0-.045.005-.068.005-.083.009-.167.009-.252v-11.2Z" transform="translate(-1534.333 -1195.259)" fill="#fff"/>
          <path id="Path_40" data-name="Path 40" d="M1540.918,1227.315a5.581,5.581,0,0,1-5.574-5.574v-5.629a9.674,9.674,0,0,1,0-6.3v-5.7a3.882,3.882,0,0,1,7.757-.243,11.2,11.2,0,0,1,1.3-.077c.072,0,.142,0,.214.005a5.393,5.393,0,0,0-10.778.315v17.629a7.086,7.086,0,0,0,14.172,0v-.22a9.813,9.813,0,0,1-1.516.417A5.58,5.58,0,0,1,1540.918,1227.315Z" transform="translate(-1533.833 -1193.577)" fill="#fff"/>
          <path id="Path_41" data-name="Path 41" d="M1537.341,1206.761v1.538a8.482,8.482,0,0,1,.731-.788,8.729,8.729,0,0,1,.78-.653v-.1Z" transform="translate(-1534.333 -1194.722)" fill="#fff"/>
        </g>
        <g id="Group_17" data-name="Group 17" transform="translate(57.902 11.177)">
          <path id="Path_42" data-name="Path 42" d="M1543.256,1221.946c.021-.052.04-.105.057-.159.006-.017.011-.033.016-.05.02-.066.038-.133.052-.2l.005-.032c.012-.059.021-.12.027-.181,0-.019,0-.038.007-.056.006-.072.01-.143.01-.217v-2.191a5.1,5.1,0,0,1,1.469-9.973,5.108,5.108,0,0,1,3.991,1.86l2.357-2.177a7.292,7.292,0,0,0-.923-.934c-.111-.094-.225-.184-.343-.271a7.5,7.5,0,0,0-.734-.482,9,9,0,0,0-4.53-1.125c-4.943,0-8.616,3.423-8.616,8.208,0,.3.015.593.042.881a8.455,8.455,0,0,0,.218,1.255,7.916,7.916,0,0,0,.742,1.888c.019.034.039.066.059.1.112.2.231.39.361.575.076.108.154.215.234.319a7.6,7.6,0,0,0,.515.6c.091.1.184.189.28.279.039.038.08.073.12.109.155.141.315.279.483.408a8.663,8.663,0,0,0,4.044,1.682c.012-.025.025-.049.036-.074S1543.25,1221.96,1543.256,1221.946Z" transform="translate(-1536.104 -1205.757)" fill="#fff"/>
          <path id="Path_43" data-name="Path 43" d="M1546.375,1223.2c0,.023,0,.046-.005.069-.006.068-.013.134-.021.2,0,.016,0,.034-.007.05-.012.081-.027.16-.043.239,0,.019-.01.038-.014.057-.014.063-.03.125-.047.187l-.018.062,0,.005a10.354,10.354,0,0,0,1.9-.183l.139-.031c.264-.056.523-.12.774-.2a7.772,7.772,0,0,0,2.393-1.2,7.16,7.16,0,0,0,.668-.569,7.264,7.264,0,0,0,.6-.649l-2.358-2.177a5.057,5.057,0,0,1-3.948,1.881v2.007C1546.384,1223.029,1546.38,1223.112,1546.375,1223.2Z" transform="translate(-1537.544 -1207.651)" fill="#fff"/>
          <path id="Path_44" data-name="Path 44" d="M1567.837,1206.074l-4.831,11.337h-.134l-4.763-11.337h-3.968l6.848,15.872h3.628l6.871-15.872Z" transform="translate(-1538.672 -1205.802)" fill="#fff"/>
        </g>
        <g id="Group_18" data-name="Group 18" transform="translate(0 12.284)">
          <path id="Path_45" data-name="Path 45" d="M1468.588,1220.578l.75-1.581a7.3,7.3,0,0,0,4.681,1.641c2.453,0,3.506-.953,3.506-2.188,0-3.466-8.592-1.277-8.592-6.545,0-2.189,1.7-4.053,5.431-4.053a8.346,8.346,0,0,1,4.56,1.256l-.669,1.621a7.331,7.331,0,0,0-3.891-1.155c-2.411,0-3.445,1.014-3.445,2.25,0,3.466,8.592,1.3,8.592,6.5,0,2.169-1.743,4.033-5.492,4.033A8.416,8.416,0,0,1,1468.588,1220.578Z" transform="translate(-1468.588 -1207.163)" fill="#fff"/>
          <path id="Path_46" data-name="Path 46" d="M1494.559,1218.06h-8.714a3.638,3.638,0,0,0,3.891,3.141,4.009,4.009,0,0,0,3.1-1.3l1.075,1.256a5.392,5.392,0,0,1-4.236,1.743c-3.466,0-5.775-2.29-5.775-5.491a5.26,5.26,0,0,1,5.39-5.472,5.178,5.178,0,0,1,5.309,5.532C1494.6,1217.635,1494.58,1217.877,1494.559,1218.06Zm-8.714-1.4h6.89a3.467,3.467,0,0,0-6.89,0Z" transform="translate(-1470.768 -1207.745)" fill="#fff"/>
          <path id="Path_47" data-name="Path 47" d="M1510.327,1216.6v6.181h-1.945v-5.958c0-2.107-1.054-3.141-2.9-3.141-2.067,0-3.4,1.236-3.4,3.567v5.532h-1.945v-10.74H1502v1.621h.02a4.562,4.562,0,0,1,3.85-1.722C1508.483,1211.94,1510.327,1213.439,1510.327,1216.6Z" transform="translate(-1473.08 -1207.745)" fill="#fff"/>
          <path id="Path_48" data-name="Path 48" d="M1526.879,1207.048v15.037h-1.865v-1.7h-.02a4.533,4.533,0,0,1-3.81,1.823,5.482,5.482,0,0,1,0-10.963,4.689,4.689,0,0,1,3.81,1.722h.02v-5.917Zm-1.973,9.717a3.726,3.726,0,1,0-3.712,3.9A3.637,3.637,0,0,0,1524.905,1216.765Z" transform="translate(-1475.304 -1207.048)" fill="#fff"/>
        </g>
      </g>
    </g>
  </g>
</svg>
