<svg xmlns="http://www.w3.org/2000/svg" xmlns:xlink="http://www.w3.org/1999/xlink" width="116" height="60" viewBox="0 0 116 60">
  <defs>
    <clipPath id="clip-sendCV-logo-black">
      <rect width="116" height="60"/>
    </clipPath>
  </defs>
  <g id="sendCV-logo-black" clip-path="url(#clip-sendCV-logo-black)">
    <g id="logo">
      <rect id="Rectangle_6" data-name="Rectangle 6" width="116" height="60" fill="none"/>
      <g id="Group_19" data-name="Group 19" transform="translate(12.542 12.429)">
        <path id="Path_37" data-name="Path 37" d="M1548.932,1201.44a8.736,8.736,0,0,0-8.737-8.716v1.512a7.221,7.221,0,0,1,7.223,7.2v1.693a9.809,9.809,0,0,1,1.515.414Z" transform="translate(-1478.633 -1192.724)" fill="#fff"/>
        <path id="Path_38" data-name="Path 38" d="M1549.948,1212.131a4.564,4.564,0,0,0-1.352-1.084v7.339a4.524,4.524,0,0,0,1.346-1.1l.169-.2v-4.775Z" transform="translate(-1479.811 -1195.333)" fill="#fff"/>
        <path id="Path_39" data-name="Path 39" d="M1545.139,1210.53l-.043,0a4.738,4.738,0,0,0-1.473.223v10.978c0,.074,0,.145-.01.217,0,.019,0,.038-.007.057-.007.061-.016.122-.028.181l-.005.032c-.015.069-.033.135-.052.2-.005.016-.01.033-.016.05-.017.053-.037.106-.058.159l-.017.042c-.011.025-.024.049-.036.074s-.034.074-.052.109l-.022.039c-.027.049-.056.1-.087.142l-.028.044c-.039.055-.078.11-.121.161l-.019.022c-.039.045-.078.088-.119.13l-.039.039c-.047.047-.1.092-.148.135l0,0-.044.033c-.04.03-.079.061-.12.089l-.046.03c-.049.033-.1.063-.15.091l-.028.016a2.383,2.383,0,0,1-3.5-1.919,8.738,8.738,0,0,1-.794-.664,8.6,8.6,0,0,1-.73-.785v1.273a3.9,3.9,0,0,0,5.65,3.474h0l.034-.018c.057-.029.113-.06.168-.092l.046-.026c.067-.04.133-.083.2-.127l.042-.029c.052-.037.1-.075.154-.114l.051-.039c.061-.05.121-.1.179-.153l.009-.009c.056-.051.109-.1.162-.156l.045-.048c.046-.047.089-.1.131-.145l.028-.033c.05-.06.1-.122.144-.184.012-.015.022-.032.034-.047.036-.052.071-.1.1-.155l.013-.02.021-.033c.041-.066.082-.134.119-.2l.016-.031c.032-.061.062-.122.091-.184l.027-.061c.028-.064.056-.13.081-.2l.01-.027c.027-.073.052-.147.074-.222l0-.005.018-.062c.017-.062.034-.124.047-.187,0-.019.009-.038.014-.057.016-.079.031-.159.043-.239,0-.016,0-.033.007-.05.009-.067.015-.134.021-.2,0-.023,0-.045.005-.069.005-.083.01-.167.01-.252v-11.2Z" transform="translate(-1478.233 -1195.259)" fill="#fff"/>
        <path id="Path_40" data-name="Path 40" d="M1540.936,1227.315a5.588,5.588,0,0,1-5.588-5.574v-5.629a9.65,9.65,0,0,1,0-6.3v-5.7a3.892,3.892,0,0,1,7.776-.243,11.194,11.194,0,0,1,1.3-.077c.072,0,.143,0,.214.005a5.407,5.407,0,0,0-10.8.315v17.629a7.1,7.1,0,0,0,14.207,0v-.22a9.86,9.86,0,0,1-1.52.417A5.588,5.588,0,0,1,1540.936,1227.315Z" transform="translate(-1477.74 -1193.577)" fill="#fff"/>
        <path id="Path_41" data-name="Path 41" d="M1537.341,1206.761v1.538a8.437,8.437,0,0,1,.733-.788,8.714,8.714,0,0,1,.781-.653v-.1Z" transform="translate(-1478.233 -1194.723)" fill="#fff"/>
        <g id="Group_17" data-name="Group 17" transform="translate(58.045 11.177)">
          <path id="Path_42" data-name="Path 42" d="M1543.274,1221.946c.021-.052.04-.106.058-.159.006-.017.011-.033.016-.05.02-.066.038-.133.052-.2l.005-.032c.012-.059.021-.12.027-.181,0-.019,0-.038.007-.057.006-.072.01-.143.01-.217v-2.191a4.824,4.824,0,0,1-3.619-4.894,4.876,4.876,0,0,1,5.091-5.08,5.126,5.126,0,0,1,4,1.86l2.363-2.177a7.3,7.3,0,0,0-.925-.934c-.112-.094-.226-.184-.344-.271a7.522,7.522,0,0,0-.736-.482,9.043,9.043,0,0,0-4.541-1.125c-4.956,0-8.638,3.424-8.638,8.208,0,.3.015.593.042.881a8.473,8.473,0,0,0,.218,1.255,7.917,7.917,0,0,0,.744,1.888c.019.034.039.066.059.1.113.2.232.39.362.576.076.108.154.215.235.319a7.662,7.662,0,0,0,.517.6c.091.1.185.189.281.28.039.038.08.073.12.109.156.141.316.279.484.408a8.7,8.7,0,0,0,4.054,1.682c.012-.025.025-.049.036-.074Z" transform="translate(-1536.104 -1205.757)" fill="#040404"/>
          <path id="Path_43" data-name="Path 43" d="M1546.375,1223.2l-.005.069c-.006.068-.013.135-.021.2,0,.016,0,.033-.007.05-.012.081-.027.16-.043.239,0,.019-.01.038-.014.057-.014.063-.03.125-.047.187l-.018.062,0,.005a10.4,10.4,0,0,0,1.905-.183l.139-.031c.265-.056.525-.12.776-.2a7.8,7.8,0,0,0,2.4-1.2,7.149,7.149,0,0,0,.67-.569,7.257,7.257,0,0,0,.6-.649l-2.363-2.177a5.074,5.074,0,0,1-3.958,1.881v2.007C1546.385,1223.028,1546.38,1223.112,1546.375,1223.2Z" transform="translate(-1537.523 -1207.651)" fill="#040404"/>
          <path id="Path_44" data-name="Path 44" d="M1567.871,1206.074l-4.843,11.337h-.134l-4.775-11.337h-3.978l6.865,15.872h3.637l6.887-15.872Z" transform="translate(-1538.634 -1205.802)" fill="#040404"/>
        </g>
        <g id="Group_18" data-name="Group 18" transform="translate(0 12.284)">
          <path id="Path_45" data-name="Path 45" d="M1468.588,1220.578l.751-1.581a7.328,7.328,0,0,0,4.692,1.641c2.459,0,3.515-.953,3.515-2.189,0-3.466-8.614-1.277-8.614-6.545,0-2.189,1.706-4.053,5.444-4.053a8.384,8.384,0,0,1,4.571,1.256l-.671,1.621a7.361,7.361,0,0,0-3.9-1.155c-2.417,0-3.453,1.014-3.453,2.25,0,3.466,8.614,1.3,8.614,6.5,0,2.169-1.747,4.033-5.506,4.033A8.451,8.451,0,0,1,1468.588,1220.578Z" transform="translate(-1468.588 -1207.162)" fill="#040404"/>
          <path id="Path_46" data-name="Path 46" d="M1494.585,1218.06h-8.736a3.645,3.645,0,0,0,3.9,3.141,4.024,4.024,0,0,0,3.108-1.3l1.077,1.256a5.411,5.411,0,0,1-4.246,1.743c-3.474,0-5.789-2.29-5.789-5.491a5.266,5.266,0,0,1,5.4-5.472,5.184,5.184,0,0,1,5.323,5.532C1494.626,1217.634,1494.606,1217.877,1494.585,1218.06Zm-8.736-1.4h6.907a3.476,3.476,0,0,0-6.907,0Z" transform="translate(-1470.736 -1207.745)" fill="#040404"/>
          <path id="Path_47" data-name="Path 47" d="M1510.352,1216.6v6.181h-1.95v-5.958c0-2.107-1.057-3.141-2.905-3.141-2.072,0-3.413,1.236-3.413,3.567v5.532h-1.95v-10.741H1502v1.621h.02a4.578,4.578,0,0,1,3.859-1.722C1508.5,1211.94,1510.352,1213.439,1510.352,1216.6Z" transform="translate(-1473.013 -1207.745)" fill="#040404"/>
          <path id="Path_48" data-name="Path 48" d="M1526.906,1207.048v15.037h-1.869v-1.7h-.02a4.549,4.549,0,0,1-3.82,1.823,5.482,5.482,0,0,1,0-10.963,4.706,4.706,0,0,1,3.82,1.722h.02v-5.918Zm-1.978,9.717a3.735,3.735,0,1,0-3.721,3.9A3.641,3.641,0,0,0,1524.928,1216.765Z" transform="translate(-1475.204 -1207.048)" fill="#040404"/>
        </g>
      </g>
    </g>
  </g>
</svg>
