<svg xmlns="http://www.w3.org/2000/svg" xmlns:xlink="http://www.w3.org/1999/xlink" width="108" height="36" viewBox="0 0 108 36">
  <defs>
    <clipPath id="clip-Apple-store-download">
      <rect width="108" height="36"/>
    </clipPath>
  </defs>
  <g id="Apple-store-download" clip-path="url(#clip-Apple-store-download)">
    <rect id="Rectangle_13185" data-name="Rectangle 13185" width="108" height="36" fill="none"/>
    <g id="_Group_" data-name="&lt;Group&gt;" transform="translate(9.217 6.98)">
      <g id="_Group_2" data-name="&lt;Group&gt;">
        <g id="_Group_3" data-name="&lt;Group&gt;">
          <path id="_Path_" data-name="&lt;Path&gt;" d="M23.289,19.668a4.454,4.454,0,0,1,2.121-3.737,4.559,4.559,0,0,0-3.592-1.942c-1.511-.159-2.977.9-3.747.9S16.1,14,14.824,14.031A4.784,4.784,0,0,0,10.8,16.486c-1.741,3.014-.442,7.443,1.225,9.879.834,1.193,1.809,2.525,3.085,2.478,1.248-.052,1.715-.8,3.222-.8s1.93.8,3.232.766c1.34-.022,2.184-1.2,2.989-2.4a9.866,9.866,0,0,0,1.367-2.783A4.3,4.3,0,0,1,23.289,19.668Z" transform="translate(-9.972 -9.245)" fill="#fff"/>
          <path id="_Path_2" data-name="&lt;Path&gt;" d="M21.713,11.862a4.385,4.385,0,0,0,1-3.142,4.462,4.462,0,0,0-2.887,1.494A4.173,4.173,0,0,0,18.8,13.239,3.689,3.689,0,0,0,21.713,11.862Z" transform="translate(-10.853 -8.72)" fill="#fff"/>
        </g>
      </g>
      <g id="Group_25076" data-name="Group 25076" transform="translate(22.011 8.236)">
        <path id="Path_5138" data-name="Path 5138" d="M41.515,26.234h-4.26l-1.023,3.021h-1.8l4.035-11.176h1.875l4.035,11.176H42.537ZM37.7,24.84h3.377l-1.665-4.9h-.047Z" transform="translate(-34.427 -17.892)" fill="#fff"/>
        <path id="Path_5139" data-name="Path 5139" d="M54.307,25.507c0,2.532-1.355,4.159-3.4,4.159a2.762,2.762,0,0,1-2.564-1.426H48.3v4.036H46.631V21.433H48.25v1.355h.031a2.891,2.891,0,0,1,2.595-1.441C52.944,21.347,54.307,22.982,54.307,25.507Zm-1.719,0c0-1.65-.853-2.734-2.153-2.734-1.278,0-2.138,1.107-2.138,2.734s.86,2.741,2.138,2.741C51.735,28.249,52.588,27.172,52.588,25.507Z" transform="translate(-35.647 -18.218)" fill="#fff"/>
        <path id="Path_5140" data-name="Path 5140" d="M64.272,25.507c0,2.532-1.355,4.159-3.4,4.159a2.762,2.762,0,0,1-2.564-1.426h-.039v4.036H56.6V21.433h1.619v1.355h.031a2.891,2.891,0,0,1,2.595-1.441C62.909,21.347,64.272,22.982,64.272,25.507Zm-1.719,0c0-1.65-.853-2.734-2.153-2.734-1.278,0-2.138,1.107-2.138,2.734s.86,2.741,2.138,2.741c1.3,0,2.153-1.077,2.153-2.741Z" transform="translate(-36.644 -18.218)" fill="#fff"/>
        <path id="Path_5141" data-name="Path 5141" d="M71.52,26.12c.124,1.108,1.2,1.836,2.672,1.836,1.41,0,2.424-.728,2.424-1.727,0-.868-.612-1.387-2.06-1.743l-1.448-.349c-2.052-.5-3.005-1.455-3.005-3.013,0-1.928,1.681-3.253,4.067-3.253,2.362,0,3.981,1.325,4.035,3.253H76.516c-.1-1.115-1.023-1.789-2.37-1.789s-2.269.681-2.269,1.673c0,.79.589,1.255,2.029,1.611l1.231.3c2.293.542,3.246,1.463,3.246,3.1,0,2.091-1.666,3.4-4.315,3.4-2.479,0-4.152-1.279-4.26-3.3Z" transform="translate(-37.965 -17.871)" fill="#fff"/>
        <path id="Path_5142" data-name="Path 5142" d="M83.028,19.3v1.928h1.55v1.325h-1.55v4.492c0,.7.31,1.023.991,1.023a5.227,5.227,0,0,0,.55-.039v1.317a4.593,4.593,0,0,1-.929.077c-1.65,0-2.293-.62-2.293-2.2V22.553H80.163V21.228h1.185V19.3Z" transform="translate(-39 -18.014)" fill="#fff"/>
        <path id="Path_5143" data-name="Path 5143" d="M86.065,25.506c0-2.564,1.51-4.175,3.865-4.175S93.8,22.942,93.8,25.506s-1.5,4.175-3.865,4.175S86.065,28.077,86.065,25.506Zm6.026,0c0-1.759-.806-2.8-2.161-2.8s-2.16,1.046-2.16,2.8.805,2.8,2.16,2.8,2.161-1.03,2.161-2.8Z" transform="translate(-39.59 -18.217)" fill="#fff"/>
        <path id="Path_5144" data-name="Path 5144" d="M96.186,21.433h1.6V22.82h.039a1.944,1.944,0,0,1,1.96-1.472,2.58,2.58,0,0,1,.573.062v1.564a2.338,2.338,0,0,0-.752-.1,1.685,1.685,0,0,0-1.743,1.875v4.833H96.186Z" transform="translate(-40.602 -18.218)" fill="#fff"/>
        <path id="Path_5145" data-name="Path 5145" d="M108.568,27.186c-.225,1.479-1.666,2.494-3.509,2.494-2.37,0-3.842-1.588-3.842-4.136s1.479-4.214,3.771-4.214c2.254,0,3.672,1.549,3.672,4.019v.573h-5.755v.1a2.122,2.122,0,0,0,2.192,2.308,1.844,1.844,0,0,0,1.882-1.146Zm-5.654-2.432h4.074a1.96,1.96,0,0,0-2-2.068,2.063,2.063,0,0,0-2.075,2.068Z" transform="translate(-41.105 -18.217)" fill="#fff"/>
      </g>
      <g id="_Group_4" data-name="&lt;Group&gt;" transform="translate(23.129 -0.255)">
        <g id="Group_25078" data-name="Group 25078">
          <path id="Path_5146" data-name="Path 5146" d="M37.611,8.73A2.376,2.376,0,0,1,40.138,11.4a2.387,2.387,0,0,1-2.527,2.7h-1.94V8.73Zm-1.106,4.611h1.013a1.688,1.688,0,0,0,1.771-1.931,1.693,1.693,0,0,0-1.771-1.92H36.505Z" transform="translate(-35.671 -8.466)" fill="#fff"/>
          <path id="Path_5147" data-name="Path 5147" d="M41.68,12.211a1.92,1.92,0,1,1,3.822,0,1.92,1.92,0,1,1-3.822,0Zm3,0c0-.878-.395-1.392-1.087-1.392s-1.086.514-1.086,1.392.391,1.4,1.086,1.4,1.087-.513,1.087-1.4Z" transform="translate(-36.271 -8.604)" fill="#fff"/>
          <path id="Path_5148" data-name="Path 5148" d="M51.073,14.248h-.83l-.838-2.985h-.063l-.834,2.985h-.822l-1.117-4.053h.811l.726,3.092h.06L49,10.195h.767l.833,3.092h.063l.722-3.092h.8Z" transform="translate(-36.761 -8.613)" fill="#fff"/>
          <path id="Path_5149" data-name="Path 5149" d="M53.854,10.186h.77v.644h.06a1.213,1.213,0,0,1,1.209-.722,1.318,1.318,0,0,1,1.4,1.507v2.624h-.8V11.816c0-.651-.283-.975-.875-.975a.93.93,0,0,0-.968,1.027v2.371h-.8Z" transform="translate(-37.489 -8.604)" fill="#fff"/>
          <path id="Path_5150" data-name="Path 5150" d="M59.094,8.437h.8v5.635h-.8Z" transform="translate(-38.013 -8.437)" fill="#fff"/>
          <path id="Path_5151" data-name="Path 5151" d="M61.217,12.211a1.92,1.92,0,1,1,3.823,0,1.92,1.92,0,1,1-3.823,0Zm3,0c0-.878-.395-1.392-1.087-1.392s-1.086.514-1.086,1.392.391,1.4,1.086,1.4,1.087-.513,1.087-1.4Z" transform="translate(-38.224 -8.604)" fill="#fff"/>
          <path id="Path_5152" data-name="Path 5152" d="M66.4,13.093c0-.73.543-1.15,1.507-1.21l1.1-.063v-.35c0-.428-.283-.67-.83-.67-.446,0-.756.164-.845.45h-.774c.082-.7.737-1.143,1.656-1.143,1.016,0,1.589.506,1.589,1.362v2.769h-.77v-.57h-.063a1.364,1.364,0,0,1-1.217.636A1.224,1.224,0,0,1,66.4,13.093Zm2.605-.346v-.339l-.99.063c-.558.037-.811.227-.811.584s.316.577.752.577a.955.955,0,0,0,1.049-.886Z" transform="translate(-38.743 -8.604)" fill="#fff"/>
          <path id="Path_5153" data-name="Path 5153" d="M71.348,12.044c0-1.281.658-2.092,1.682-2.092a1.336,1.336,0,0,1,1.243.711h.06V8.437h.8v5.635h-.766v-.64H74.3a1.407,1.407,0,0,1-1.273.707C72,14.139,71.348,13.327,71.348,12.044Zm.826,0c0,.86.405,1.377,1.083,1.377s1.091-.525,1.091-1.373-.421-1.377-1.091-1.377-1.083.521-1.083,1.373Z" transform="translate(-39.238 -8.437)" fill="#fff"/>
          <path id="Path_5154" data-name="Path 5154" d="M79.229,12.211a1.92,1.92,0,1,1,3.822,0,1.92,1.92,0,1,1-3.822,0Zm3,0c0-.878-.395-1.392-1.087-1.392s-1.086.514-1.086,1.392.391,1.4,1.086,1.4S82.229,13.093,82.229,12.211Z" transform="translate(-40.025 -8.604)" fill="#fff"/>
          <path id="Path_5155" data-name="Path 5155" d="M84.669,10.186h.77v.644h.06a1.213,1.213,0,0,1,1.209-.722,1.318,1.318,0,0,1,1.4,1.507v2.624h-.8V11.816c0-.651-.283-.975-.875-.975a.93.93,0,0,0-.968,1.027v2.371h-.8Z" transform="translate(-40.57 -8.604)" fill="#fff"/>
          <path id="Path_5156" data-name="Path 5156" d="M93.355,9.074V10.1h.878v.674h-.878v2.084c0,.425.175.61.573.61a2.669,2.669,0,0,0,.3-.018v.666a2.624,2.624,0,0,1-.435.041c-.889,0-1.244-.313-1.244-1.094V10.775h-.643V10.1h.643V9.074Z" transform="translate(-41.294 -8.501)" fill="#fff"/>
          <path id="Path_5157" data-name="Path 5157" d="M95.7,8.437H96.5V10.67h.063A1.247,1.247,0,0,1,97.8,9.944a1.335,1.335,0,0,1,1.4,1.511v2.617h-.8V11.653c0-.647-.3-.975-.867-.975A.947.947,0,0,0,96.5,11.7v2.367h-.8Z" transform="translate(-41.673 -8.437)" fill="#fff"/>
          <path id="Path_5158" data-name="Path 5158" d="M104.356,13.145a1.645,1.645,0,0,1-1.756,1.172,1.841,1.841,0,0,1-1.872-2.092,1.869,1.869,0,0,1,1.869-2.117c1.128,0,1.808.77,1.808,2.043v.279h-2.862v.045a1.071,1.071,0,0,0,1.079,1.161.971.971,0,0,0,.964-.491Zm-2.813-1.306h2.047a.978.978,0,0,0-1-1.05,1.036,1.036,0,0,0-1.049,1.05Z" transform="translate(-42.174 -8.604)" fill="#fff"/>
        </g>
      </g>
    </g>
  </g>
</svg>
