<svg xmlns="http://www.w3.org/2000/svg" xmlns:xlink="http://www.w3.org/1999/xlink" width="122" height="36" viewBox="0 0 122 36">
  <defs>
    <linearGradient id="linear-gradient" x1="0.908" y1="1.032" x2="-0.383" y2="0.36" gradientUnits="objectBoundingBox">
      <stop offset="0" stop-color="#00a0ff"/>
      <stop offset="0.007" stop-color="#00a1ff"/>
      <stop offset="0.26" stop-color="#00beff"/>
      <stop offset="0.512" stop-color="#00d2ff"/>
      <stop offset="0.76" stop-color="#00dfff"/>
      <stop offset="1" stop-color="#00e3ff"/>
    </linearGradient>
    <linearGradient id="linear-gradient-2" x1="1.077" y1="0.729" x2="-1.307" y2="0.729" gradientUnits="objectBoundingBox">
      <stop offset="0" stop-color="#ffe000"/>
      <stop offset="0.409" stop-color="#ffbd00"/>
      <stop offset="0.775" stop-color="orange"/>
      <stop offset="1" stop-color="#ff9c00"/>
    </linearGradient>
    <linearGradient id="linear-gradient-3" x1="0.864" y1="-0.023" x2="-0.499" y2="-1.789" gradientUnits="objectBoundingBox">
      <stop offset="0" stop-color="#ff3a44"/>
      <stop offset="1" stop-color="#c31162"/>
    </linearGradient>
    <linearGradient id="linear-gradient-4" x1="-0.186" y1="2.701" x2="0.423" y2="1.909" gradientUnits="objectBoundingBox">
      <stop offset="0" stop-color="#32a071"/>
      <stop offset="0.069" stop-color="#2da771"/>
      <stop offset="0.476" stop-color="#15cf74"/>
      <stop offset="0.801" stop-color="#06e775"/>
      <stop offset="1" stop-color="#00f076"/>
    </linearGradient>
    <clipPath id="clip-google-play-download">
      <rect width="122" height="36"/>
    </clipPath>
  </defs>
  <g id="google-play-download" clip-path="url(#clip-google-play-download)">
    <rect id="Rectangle_13185" data-name="Rectangle 13185" width="108" height="36" fill="none"/>
    <g id="Group_40254" data-name="Group 40254" transform="translate(14331.436 11176.596)">
      <path id="Path_5161" data-name="Path 5161" d="M46.8,9.87a2.451,2.451,0,0,1-.63,1.8A2.79,2.79,0,0,1,41.4,9.69,2.766,2.766,0,0,1,44.19,6.9a2.4,2.4,0,0,1,1.08.27,1.96,1.96,0,0,1,.81.63l-.45.45a1.678,1.678,0,0,0-1.44-.63,1.791,1.791,0,0,0-1.44.63,1.854,1.854,0,0,0-.63,1.53,1.854,1.854,0,0,0,.63,1.53,2.317,2.317,0,0,0,1.44.63,1.974,1.974,0,0,0,1.53-.63,1.49,1.49,0,0,0,.45-1.08H44.19V9.51H46.8v.36Zm4.14-2.25H48.51V9.33h2.25v.63H48.51v1.71h2.43v.72H47.79V6.99h3.15Zm2.97,4.77h-.72V7.62H51.66V6.99h3.78v.63H53.91Zm4.14,0V6.99h.72v5.4Zm3.78,0h-.72V7.62H59.58V6.99h3.69v.63H61.74v4.77Zm8.55-.72a2.79,2.79,0,0,1-4.77-1.98,2.79,2.79,0,1,1,5.58,0A2.646,2.646,0,0,1,70.38,11.67Zm-3.42-.45a2.124,2.124,0,0,0,1.44.63,1.791,1.791,0,0,0,1.44-.63,2.171,2.171,0,0,0,.63-1.53,1.854,1.854,0,0,0-.63-1.53,2.124,2.124,0,0,0-1.44-.63,1.791,1.791,0,0,0-1.44.63,2.171,2.171,0,0,0-.63,1.53A1.854,1.854,0,0,0,66.96,11.22Zm5.22,1.17V6.99h.81l2.61,4.23V6.99h.72v5.4H75.6L72.81,7.98v4.41h-.63Z" transform="translate(-14335.64 -11177.69)" fill="#fff" stroke="#fff" stroke-miterlimit="10" stroke-width="0.2"/>
      <path id="Path_5162" data-name="Path 5162" d="M65.4,21.33a3.786,3.786,0,0,0-3.87,3.87,3.841,3.841,0,0,0,3.87,3.87,3.786,3.786,0,0,0,3.87-3.87A3.734,3.734,0,0,0,65.4,21.33Zm0,6.12a2.347,2.347,0,0,1,0-4.68,2.18,2.18,0,0,1,2.16,2.34A2.234,2.234,0,0,1,65.4,27.45Zm-8.37-6.12a3.786,3.786,0,0,0-3.87,3.87,3.841,3.841,0,0,0,3.87,3.87A3.786,3.786,0,0,0,60.9,25.2,3.734,3.734,0,0,0,57.03,21.33Zm0,6.12a2.347,2.347,0,0,1,0-4.68,2.18,2.18,0,0,1,2.16,2.34A2.234,2.234,0,0,1,57.03,27.45ZM47.04,22.5v1.62h3.87a3.4,3.4,0,0,1-.9,2.07,3.984,3.984,0,0,1-2.97,1.17,4.19,4.19,0,0,1-4.23-4.32,4.245,4.245,0,0,1,4.23-4.32,4.463,4.463,0,0,1,2.97,1.17l1.17-1.17a5.767,5.767,0,0,0-4.05-1.62,6.071,6.071,0,0,0-6.03,5.94,6.071,6.071,0,0,0,6.03,5.94,5.179,5.179,0,0,0,4.14-1.71,5.418,5.418,0,0,0,1.44-3.78,3.374,3.374,0,0,0-.09-.99ZM87.9,23.76a3.5,3.5,0,0,0-3.24-2.43,3.625,3.625,0,0,0-3.6,3.87,3.766,3.766,0,0,0,3.78,3.87,3.692,3.692,0,0,0,3.15-1.71l-1.26-.9a2.194,2.194,0,0,1-1.89,1.08,1.953,1.953,0,0,1-1.89-1.17l5.13-2.16-.18-.45Zm-5.22,1.26a2.186,2.186,0,0,1,1.98-2.25,1.592,1.592,0,0,1,1.44.81l-3.42,1.44Zm-4.23,3.69h1.71V17.46H78.45Zm-2.7-6.57a2.963,2.963,0,0,0-2.07-.9,3.867,3.867,0,0,0-3.69,3.87,3.727,3.727,0,0,0,3.69,3.78,2.584,2.584,0,0,0,1.98-.9h.09v.54a2.046,2.046,0,0,1-3.96.9l-1.44.63a3.713,3.713,0,0,0,3.42,2.25c1.98,0,3.6-1.17,3.6-3.96V21.51H75.75v.63Zm-1.98,5.31a2.347,2.347,0,0,1,0-4.68,2.165,2.165,0,0,1,2.07,2.34A2.165,2.165,0,0,1,73.77,27.45Zm21.96-9.99H91.68V28.71h1.71V24.48h2.34a3.514,3.514,0,1,0,0-7.02Zm.09,5.4H93.39V18.99h2.43a1.977,1.977,0,0,1,1.98,1.89,2.06,2.06,0,0,1-1.98,1.98Zm10.35-1.62a3.025,3.025,0,0,0-2.97,1.71l1.53.63a1.59,1.59,0,0,1,1.53-.81,1.691,1.691,0,0,1,1.8,1.44v.09a3.57,3.57,0,0,0-1.71-.45c-1.62,0-3.24.9-3.24,2.52a2.637,2.637,0,0,0,2.79,2.52,2.533,2.533,0,0,0,2.16-1.08h.09v.9h1.62V24.39a3.406,3.406,0,0,0-3.6-3.15Zm-.18,6.21c-.54,0-1.35-.27-1.35-.99,0-.9.99-1.17,1.8-1.17a3.481,3.481,0,0,1,1.53.36A2.1,2.1,0,0,1,105.99,27.45Zm9.45-5.94-1.89,4.86h-.09l-1.98-4.86h-1.8l2.97,6.84-1.71,3.78h1.71l4.59-10.62h-1.8Zm-15.12,7.2h1.71V17.46h-1.71Z" transform="translate(-14335.61 -11178.71)" fill="#fff"/>
      <g id="Group_25079" data-name="Group 25079" transform="translate(-14322.5 -11170.567)">
        <path id="Path_5163" data-name="Path 5163" d="M10.36,7.5A1.76,1.76,0,0,0,10,8.76V28.65a1.78,1.78,0,0,0,.45,1.26l.09.09L21.7,18.84v-.18Z" transform="translate(-10 -7.182)" fill="url(#linear-gradient)"/>
        <path id="Path_5164" data-name="Path 5164" d="M26.59,23.45,22.9,19.76v-.27l3.69-3.69.09.09,4.41,2.52c1.26.72,1.26,1.89,0,2.61Z" transform="translate(-11.29 -8.012)" fill="url(#linear-gradient-2)"/>
        <path id="Path_5165" data-name="Path 5165" d="M25.43,23.78,21.65,20,10.4,31.25c.45.45,1.08.45,1.89.09l13.14-7.56" transform="translate(-10.04 -8.432)" fill="url(#linear-gradient-3)"/>
        <path id="Path_5166" data-name="Path 5166" d="M25.43,14.937,12.29,7.467a1.459,1.459,0,0,0-1.89.09l11.25,11.16,3.78-3.78Z" transform="translate(-10.04 -7.15)" fill="url(#linear-gradient-4)"/>
        <path id="Path_5167" data-name="Path 5167" d="M25.34,24.1,12.29,31.48a1.472,1.472,0,0,1-1.8,0l-.09.09.09.09a1.472,1.472,0,0,0,1.8,0Z" transform="translate(-10.04 -8.842)" opacity="0.2"/>
        <path id="Path_5168" data-name="Path 5168" d="M10.36,31.07A1.76,1.76,0,0,1,10,29.81v.09a1.78,1.78,0,0,0,.45,1.26v-.09h-.09Zm19.44-9.9-4.5,2.52.09.09,4.41-2.52A1.5,1.5,0,0,0,30.7,20C30.7,20.45,30.34,20.81,29.8,21.17Z" transform="translate(-10 -8.432)" opacity="0.12"/>
        <path id="Path_5169" data-name="Path 5169" d="M12.25,7.555l17.55,9.99c.54.36.9.72.9,1.17a1.5,1.5,0,0,0-.9-1.26L12.25,7.465c-1.26-.72-2.25-.18-2.25,1.26v.09C10,7.465,10.99,6.835,12.25,7.555Z" transform="translate(-10 -7.147)" fill="#fff" opacity="0.25"/>
      </g>
    </g>
  </g>
</svg>
